<svg height="28" viewBox="0 0 109 28" width="109" xmlns="http://www.w3.org/2000/svg" xmlns:xlink="http://www.w3.org/1999/xlink"><mask id="a" fill="#fff"><path d="m0 0h19.9985v27.9998951h-19.9985z" fill="#fff" fill-rule="evenodd"/></mask><g fill="#fff" fill-rule="evenodd"><path d="m32.4979 16.0008c-3.313 0-6-2.686-6-6 0-3.313 2.687-5.999 6-5.999s6 2.686 6 5.999c0 3.314-2.687 6-6 6m0-15.999c-5.522 0-10 4.477-10 9.999 0 5.523 4.478 10 10 10s9.999-4.477 9.999-10c0-5.522-4.477-9.999-9.999-9.999"/><path d="m54.9959 16.0008c-3.313 0-6-2.686-6-6 0-3.313 2.687-5.999 6-5.999s6 2.686 6 5.999c0 3.314-2.687 6-6 6m0-15.999c-5.522 0-9.999 4.477-9.999 9.999 0 5.523 4.477 10 9.999 10s10-4.477 10-10c0-5.522-4.478-9.999-10-9.999"/><path d="m76.9945.5023c-4.97 0-9 4.029-9 8.999v10h4v-10c0-2.761 2.239-4.999 5-4.999h2v-4z"/><path d="m108.992 8.5013c0-4.418-3.582-7.999-8-7.999-2.39 0-4.533 1.049-5.999 2.711-1.466-1.662-3.609-2.711-6-2.711-4.418 0-7.999 3.581-7.999 7.999v11h4v-11c0-2.209 1.79-4 3.999-4s4 1.791 4 4v11h4v-11c0-2.209 1.791-4 3.999-4 2.209 0 4 1.791 4 4v11h4z"/><path d="m9.9955 15.9989c-3.313 0-6-2.686-6-6 0-3.313 2.687-5.999 6-5.999s6 2.686 6 5.999c0 3.314-2.687 6-6 6zm10.003-6c0-5.522-4.477-9.999-9.999-9.999-5.354 0-9.725 4.208-9.987 9.498-.008.166-.013.333-.013.501 0 .169.005.336.013.502.261 5.151 4.521 9.248 9.737 9.248 2.378 0 4.557-.852 6.249-2.267v1.516c-.037.625-.223 2.241-1.464 3.535-1.77 1.845-4.518 1.814-6.314 1.196-1.882-.647-2.939-2.015-3.345-2.609l-3.721 1.542c1.226 2.321 3.339 4.102 5.888 4.89.249.077 1.39.428 2.957.446 1.104.012 4.668.051 7.363-2.637 2.44-2.433 2.615-5.555 2.636-6.363z" mask="url(#a)"/></g></svg>